<svg xmlns="http://www.w3.org/2000/svg" xmlns:xlink="http://www.w3.org/1999/xlink" preserveAspectRatio="xMidYMid" width="32" height="32" viewBox="0 0 32 32">
  <defs>
    <style>
      .cls-1 {
        fill: #c9cbce;
        fill-rule: evenodd;
      }
    </style>
  </defs>
  <path d="M16.000,32.000 C7.178,32.000 -0.000,24.822 -0.000,16.000 C-0.000,7.178 7.178,-0.000 16.000,-0.000 C24.822,-0.000 32.000,7.178 32.000,16.000 C32.000,24.822 24.822,32.000 16.000,32.000 ZM16.000,2.000 C8.280,2.000 2.000,8.280 2.000,16.000 C2.000,23.720 8.280,30.000 16.000,30.000 C23.720,30.000 30.000,23.720 30.000,16.000 C30.000,8.280 23.720,2.000 16.000,2.000 ZM22.000,17.000 L10.000,17.000 C9.447,17.000 9.000,16.552 9.000,16.000 C9.000,15.448 9.447,15.000 10.000,15.000 L22.000,15.000 C22.553,15.000 23.000,15.448 23.000,16.000 C23.000,16.552 22.553,17.000 22.000,17.000 Z" class="cls-1"/>
</svg>
