<?xml version="1.0" standalone="no"?><!DOCTYPE svg PUBLIC "-//W3C//DTD SVG 1.1//EN" "http://www.w3.org/Graphics/SVG/1.1/DTD/svg11.dtd"><svg t="1481983023566" class="icon" style="" viewBox="0 0 1025 1024" version="1.1" xmlns="http://www.w3.org/2000/svg" p-id="3276" xmlns:xlink="http://www.w3.org/1999/xlink" width="200.1953125" height="200"><defs><style type="text/css"></style></defs><path d="M1001.247019 329.915733c-20.85888-149.804373-152.159573-251.904-291.293867-251.904-42.646187 0-86.060373 9.588053-127.238827 30.3616-28.893867 14.554453-54.807893 35.177813-83.657387 54.033067 0 0-1.877333-1.471147-3.607893-3.089067-56.835413-53.5552-128.94208-81.17248-201.89184-81.17248-50.2272 0-100.867413 13.1072-147.165867 39.8848C40.018219 179.551573-16.605567 300.827307 4.297686 421.843627c12.008107 69.556907 45.847893 127.020373 94.798507 176.34304 92.44672 93.16352 252.29312 253.914453 340.35712 342.340267 17.360213 17.452373 40.103253 26.176853 62.84288 26.176853 22.695253 0 45.390507-8.700587 62.75072-26.084693 90.39872-90.507947 256.699733-257.693013 352.64512-356.683093C985.392086 514.095787 1014.873046 427.851093 1001.247019 329.915733zM850.445953 535.17312c-106.33216 109.745493-297.127253 300.9024-334.288213 338.111147-3.805867 3.81952-8.1408 4.621653-11.10016 4.621653-2.983253 0-7.325013-0.802133-11.12064-4.645547-83.636907-83.981653-235.4688-236.65664-323.2768-325.133653-39.430827-39.7312-62.624427-82.3808-70.915413-130.362027C84.910379 331.8784 125.679233 244.831573 201.219713 201.14432c32.433493-18.766507 68.928853-28.678827 105.53344-28.678827 53.38112 0 104.799573 20.753067 144.790187 58.412373 17.64352 16.62976 35.157333 21.684907 49.947307 21.684907 19.02592 0 33.539413-8.359253 37.901653-11.188907 9.325227-6.11328 18.3808-12.373333 27.293013-18.592427 16.04608-11.165013 31.208107-21.701973 45.568-28.93824 28.3136-14.277973 58.606933-21.507413 90.074453-21.507413 104.645973 0 194.307413 77.21984 208.585387 179.602773C920.801579 423.051947 901.021313 483.00032 850.445953 535.17312z" p-id="3277"></path></svg>